# xmcd CD database file
#
# Track frame offsets:
#	150
#	18307
#	38567
#
# Disc length: 755 seconds
#
# Revision: 0
# Processed by: cddbd v1.5PL3 Copyright (c) Steve Scherf et al.
# Submitted via: CDex 1.50beta10
#
DISCID=1602f103
DTITLE=山口由子 - アニメ ハーメルンのバイオリン弾き ED
DYEAR=1997
DGENRE=Anime
TTITLE0=太陽と月に背いて
TTITLE1=ジェラシー
TTITLE2=太陽と月に背いて　オリジナルカラオケ
EXTD=YEAR: 1997
EXTT0=
EXTT1=
EXTT2=
PLAYORDER=
